<?xml version="1.0" encoding="utf-8"?>
<!-- Generator: Adobe Illustrator 16.0.0, SVG Export Plug-In . SVG Version: 6.00 Build 0)  -->
<!DOCTYPE svg PUBLIC "-//W3C//DTD SVG 1.1//EN" "http://www.w3.org/Graphics/SVG/1.1/DTD/svg11.dtd">
<svg version="1.1" id="Layer_1" xmlns="http://www.w3.org/2000/svg" xmlns:xlink="http://www.w3.org/1999/xlink" x="0px" y="0px"
	 width="792px" height="612px" viewBox="0 0 792 612" enable-background="new 0 0 792 612" xml:space="preserve">
<g>
	<g>
		<path fill="none" stroke="#0071BC" stroke-width="15" stroke-linecap="round" stroke-linejoin="round" d="M397.895,203.5c3.867-23.498,8.812-77.962-29.22-73.067c-13.323,1.715-20.474,14.758-24.323,26.245
			c-4.969,14.828-6.182,30.926-6.6,46.46c-0.943,35.086,4.583,69.25,9.389,103.921c4.042,29.155,7.275,58.698,3.139,88.029
			c-3.642,25.825-13.642,51.212-30.377,71.393c-18.434,22.229-53.075,48.069-83.452,35.855
			c-15.02-6.038-24.819-21.409-31.122-35.549c-6.747-15.14-10.308-31.818-11.645-48.287c0.134,1.651-0.135,3.342,0,5
			c1.846,22.731,7.884,46.362,21.115,65.24c6.259,8.931,14.787,16.498,25.268,19.91c10.393,3.384,21.733,1.525,31.8-2.022
			c21.23-7.481,40.291-23.878,53.277-42.001c15.544-21.692,23.62-47.413,26.246-73.78c4.811-48.313-6.422-96.289-11.791-144.04
			c-1.699-15.114-2.31-30.401-1.581-45.593c0.755-15.729,2.63-32.214,9.12-46.726c6.68-14.937,21.518-24.311,37.589-16.604
			c9.364,4.49,13.009,15.498,14.57,24.991c1.937,11.784,0.524,23.926-1.401,35.625C397.627,200.128,398.16,201.884,397.895,203.5
			L397.895,203.5z"/>
	</g>
</g>
<g>
	<g>
		<path fill="none" stroke="#0071BC" stroke-width="15" stroke-linecap="round" stroke-linejoin="round" d="M365.238,356.789c0,36.842,0,73.685,0,110.526c0,0.294,0.025,3.022,0.038,2.159c0.082-5.87,1.943-11.87,3.577-17.453
			c2.099-7.167,4.688-14.208,7.748-21.021c1.901-4.232,11.317-24.726,17.314-14.086c2.827,5.016,3.09,11.599,3.934,17.208
			c1.022,6.791,2.114,13.582,3.804,20.244c1.056,4.164,2.519,11.273,6.854,13.37c5.521,2.671,10.279-10.772,11.495-13.711
			c0.594-1.436-0.583-3.591,0-5c-1.451,3.506-5.612,15.786-11.495,13.711c-4.536-1.6-6.08-10.319-7.066-14.207
			c-1.733-6.837-2.755-13.847-3.802-20.813c-0.848-5.634-1.153-12.387-4.575-17.146c-6.408-8.913-16.917,16.362-18.289,19.654
			c-2.949,7.072-5.373,14.388-7.309,21.801c-0.741,2.836-1.371,5.705-1.825,8.602c-0.149,0.954-0.27,1.92-0.329,2.883
			c-0.025,0.402-0.049,0.805-0.054,1.207c0.054,1.282,0.064,0.833,0.031-1.349c0-1.315,0-2.632,0-3.947c0-34.211,0-68.421,0-102.632
			C365.288,353.961,365.238,353.961,365.238,356.789L365.238,356.789z"/>
	</g>
</g>
<g>
	<g>
		<path fill="none" stroke="#0071BC" stroke-width="15" stroke-linecap="round" stroke-linejoin="round" d="M423.5,442.5c7.022,0.62,12.983-1.911,15.764-8.65c1.646-3.987,1.246-8.914,1.063-13.146
			c-0.225-5.198-2.543-12.63-8.765-12.828c-6.699-0.213-9.572,9.213-10.566,14.238c-1.876,9.486-0.899,20.662,2.959,29.461
			c5.744,13.099,18.517,17.691,31.545,12.426c0.611-0.247-0.546-4.779,0-5c-9.563,3.865-19.3,3.06-26.567-4.697
			c-6.801-7.258-9.349-18.8-7.937-27.189c0.812-4.826,2.667-9.76,6.638-12.83c3.766-2.912,7.947-0.889,10.26,2.635
			c3.068,4.675,2.683,10.225-0.089,14.842c-2.993,4.986-8.939,6.214-14.305,5.74C423.608,437.51,423.316,442.483,423.5,442.5
			L423.5,442.5z"/>
	</g>
</g>
<g>
	<g>
		<path fill="none" stroke="#0071BC" stroke-width="15" stroke-linecap="round" stroke-linejoin="round" d="M456.5,463.5c1.056,4.697,6.242,8.768,10.937,6.146c4.496-2.513,5.844-10.048,7.003-14.537
			c3.009-11.656,1.948-24.312,2.411-36.241c0.467-12.018,0.906-24.026,0.786-36.054c-0.073-7.246,0.417-15.544-1.385-23.183
			c-0.528-2.239-1.502-4.283-2.878-6.115c-1.566-2.086-2.385-2.277-3.596-0.128c-1.837,3.262-2.371,7.411-2.621,11.08
			c-0.509,7.461-0.234,15.012,0.404,22.452c0.962,11.206,2.894,22.309,4.532,33.429c2.065,14.019,3.056,28.243,5.949,42.13
			c0.749,3.597,2.623,7.627,6.507,8.505c3.635,0.821,6.894-2.736,8.711-5.344c3.233-4.642,4.037-10.979,5.116-16.383
			c1.533-7.672,2.403-15.472,3.097-23.257c1.849-20.742,3.808-43.003,0.899-63.778c-0.537-3.84-1.36-8.142-3.873-11.222
			c-0.017-0.02-2.64,5.79-2.807,6.293c-1.078,3.251-1.683,6.661-2.176,10.041c-1.386,9.516-0.525,19.639-0.144,29.183
			c0.524,13.099,1.519,26.385,3.388,39.36c1.137,7.884,4.203,15.786,8.067,22.705c3.794,6.795,10.354,14.355,18.921,11.233
			c0.569-0.207-0.502-4.817,0-5c-15.957,5.814-24.551-21.476-26.742-32.52c-0.953-4.804-1.031-9.813-1.617-14.672
			c-1.039-8.621-1.621-17.256-2.003-25.929c-0.376-8.525-0.613-16.896,1.197-25.276c0.569-2.634,1.396-5.202,2.429-7.688
			c0.401-0.965,0.927-1.853,1.486-2.73c0.033-0.052,1.59,2.531,1.687,2.732c1.994,4.162,2.375,9.229,2.789,13.751
			c0.77,8.418,0.338,16.86-0.063,25.283c-0.741,15.564-1.647,31.151-4.535,46.49c-1.271,6.76-3.731,22.649-13.827,21.727
			c-3.973-0.363-5.668-5.339-6.507-8.505c-2.035-7.68-2.612-15.985-3.575-23.854c-2.002-16.351-4.92-32.594-6.645-48.975
			c-0.811-7.703-1.46-15.618,0.704-23.163c0.309-1.075,0.758-2.098,1.251-3.1c0.939-1.909,1.241-2.04,2.883-0.639
			c2.598,2.218,3.498,6.134,4.111,9.313c1.795,9.311,0.922,20.761,0.68,30.029c-0.245,9.411-0.95,18.83-0.977,28.243
			c-0.031,11.346-0.361,22.98-4.823,33.6c-1.343,3.194-3.626,6.495-7.363,6.599c-3.868,0.107-7.021-3.616-7.789-7.033
			C456.854,460.077,456.142,461.906,456.5,463.5L456.5,463.5z"/>
	</g>
</g>
<g>
	<g>
		<path fill="none" stroke="#0071BC" stroke-width="15" stroke-linecap="round" stroke-linejoin="round" d="M548.853,413.262c0.072,12.565,1.367,25.015,4.662,37.168c1.61,5.938,3.587,12.771,7.707,17.477
			c4.538,5.183,9.851,0.216,12.652-3.906c7.47-10.99,9.882-25.255,10.978-38.217c0.393-4.644,0.512-9.312,0.539-13.971
			c0.027-4.732-0.13,9.65-0.143,10.092c-0.057,1.928-0.142,3.854-0.227,5.779c-0.197,4.509-0.49,9.014-0.801,13.517
			c-1.097,15.889-2.74,31.735-3.542,47.645c-0.825,16.374-1.931,32.748-5.444,48.799c-1.962,8.963-4.86,27.085-17.643,25.246
			c-4.671-0.672-6.965-6.186-7.944-10.162c-1.216-4.941,0.812-10.604,2.368-15.269c3.335-9.996,8.687-19.275,13.87-28.399
			c5.965-10.498,11.574-21.179,17.665-31.611c15.248-26.117,31.384-51.918,41.823-80.448c0.542-1.481-0.533-3.543,0-5
			c-10.23,27.96-25.919,53.346-40.924,78.912c-6.044,10.298-11.597,20.845-17.475,31.229c-5.142,9.084-10.326,18.154-14.094,27.918
			c-2.781,7.206-3.944,14.408-3.789,22.083c0.176,8.68,5.452,20.261,15.86,14.232c4.375-2.533,6.173-8.513,7.501-13.021
			c2.117-7.183,3.701-14.494,4.896-21.883c2.422-14.991,2.797-30.18,3.765-45.303c1.692-26.468,4.685-52.765,4.272-79.327
			c-0.015-0.941-0.036,1.318-0.037,1.493c-0.038,11.198-1.076,22.407-3.978,33.244c-2.038,7.609-5.826,19.626-13.554,23.217
			c-8.1,3.765-12.387-13.034-13.829-17.724c-3.589-11.667-5.023-24.164-5.094-36.334
			C548.878,407.674,548.848,412.511,548.853,413.262L548.853,413.262z"/>
	</g>
</g>
<g>
	<g>
		<path fill="none" stroke="#0071BC" stroke-width="15" stroke-linecap="round" stroke-linejoin="round" d="M516.874,444.181c7.022,0.62,12.983-1.911,15.764-8.65c1.646-3.987,1.246-8.914,1.063-13.146
			c-0.225-5.198-2.543-12.63-8.765-12.828c-6.699-0.213-9.572,9.213-10.566,14.238c-1.876,9.486-0.899,20.662,2.959,29.461
			c5.744,13.099,18.517,17.691,31.545,12.426c0.611-0.247-0.546-4.779,0-5c-9.563,3.865-19.3,3.06-26.567-4.697
			c-6.801-7.258-9.349-18.8-7.937-27.189c0.812-4.826,2.667-9.76,6.638-12.83c3.766-2.912,7.947-0.889,10.26,2.635
			c3.068,4.675,2.682,10.225-0.089,14.842c-2.993,4.986-8.939,6.214-14.305,5.74C516.982,439.19,516.69,444.164,516.874,444.181
			L516.874,444.181z"/>
	</g>
</g>
</svg>
