<?xml version="1.0" encoding="utf-8"?>
<!-- Generator: Adobe Illustrator 16.0.0, SVG Export Plug-In . SVG Version: 6.00 Build 0)  -->
<!DOCTYPE svg PUBLIC "-//W3C//DTD SVG 1.1//EN" "http://www.w3.org/Graphics/SVG/1.1/DTD/svg11.dtd">
<svg version="1.1" id="Layer_1" xmlns="http://www.w3.org/2000/svg" xmlns:xlink="http://www.w3.org/1999/xlink" x="0px" y="0px"
	 width="250px" height="250px" viewBox="0 0 250 250" enable-background="new 0 0 250 250" xml:space="preserve">
<circle fill="none" stroke="#fff" stroke-width="6" stroke-miterlimit="10" cx="125" cy="125" r="107.479"/>
<g>
	<g>
		<path fill="none" stroke="#fff" stroke-width="6" stroke-linecap="round" stroke-linejoin="round"  d="M158.622,68.655c-0.019-9.617-6.533-18.812-16.564-20.128c-9.03-1.185-15.183,8.707-18.667,15.483
			c-12.459,24.227-10.782,51.541-13.274,77.865c-1.191,12.581-2.873,25.658-8.192,37.238c-3.898,8.485-12.414,18.371-22.781,17.298
			c-4.206-0.436-6.743-3.988-8.101-7.636c-2.228-5.985-0.078-11.866,3.325-16.889c6.452-9.522,19.396-15.535,30.26-17.927
			c9.229-2.031,17.372,1.668,26.386,2.438c7.552,0.646,12.598-4.833,13.367-11.989c0.367-3.415,0.335-7.387-0.598-10.691
			c-2.19-7.759-10.231-3.507-12.83,1.526c-2.38,4.609-2.162,10.267-2.112,15.317c0.063,6.282,1.524,11.91,6.288,16.307
			c10.146,9.366,28.094,2.724,38.854-1.886c0.635-0.271-0.571-4.756,0-5c-8.524,3.651-17.696,6.701-27.084,6.265
			c-9.834-0.456-18.809-8.427-17.827-18.846c0.459-4.877,2.182-9.405,6.404-12.101c3.726-2.378,6.94-0.272,8.308,3.417
			c1.308,3.531-1.309,7.699-4.001,10.247c-3.901,3.69-10.212,2.475-14.874,1.455c-6.312-1.38-12.088-2.576-18.597-1.753
			c-6.661,0.843-13.166,3.901-18.985,7.13c-9.419,5.225-17.003,13.512-17.507,24.673c-0.306,6.782-0.281,15.634,5.996,19.781
			c8.367,5.529,19.05-4.854,23.245-11.015c8.514-12.501,9.852-29.644,11.236-44.266c1.859-19.641,0.998-39.457,6.42-58.621
			c2.871-10.147,7.053-21.592,14.926-28.93c10.311-9.611,25.592,0.868,26.952,13.111c-0.009-0.612-0.017-1.224-0.024-1.835
			c0.001,0.43,0.001,0.859,0.002,1.289C158.58,73.502,158.625,70.188,158.622,68.655L158.622,68.655z"/>
	</g>
</g>
</svg>
