<?xml version="1.0" encoding="utf-8"?>
<!-- Generator: Adobe Illustrator 16.0.0, SVG Export Plug-In . SVG Version: 6.00 Build 0)  -->
<!DOCTYPE svg PUBLIC "-//W3C//DTD SVG 1.1//EN" "http://www.w3.org/Graphics/SVG/1.1/DTD/svg11.dtd">
<svg version="1.1" id="Layer_1" xmlns="http://www.w3.org/2000/svg" xmlns:xlink="http://www.w3.org/1999/xlink" x="0px" y="0px"
	 width="581px" height="291.711px" viewBox="0 0 581 291.711" enable-background="new 0 0 581 291.711" xml:space="preserve">
<g>
	<g>
		<path fill="none" stroke="#0071BC" stroke-width="15" stroke-linecap="round" stroke-linejoin="round"  d="M249.114-183.843c1.769-10.887,4.469-33.082-10.435-35.501c-15.835-2.569-18.056,21.15-18.654,31.681
			c-2.386,41.976,19.659,87.731-4.83,126.189c-8.25,12.957-25.542,27.391-41.967,23.744c-16.605-3.687-22.15-27.437-23.366-41.617
			c0.068,0.802-0.069,1.625,0,2.43c0.98,11.443,4.027,23.142,10.869,32.532c7.27,9.979,18.282,11.519,29.231,7.037
			c23.391-9.573,35.098-34.804,36.803-58.637c1.528-21.354-2.999-42.572-5.616-63.653c-1.967-15.842-3.565-35.399,4.27-49.954
			c3.562-6.618,10.907-9.425,17.778-5.881c9.463,4.882,7.271,20.867,5.917,29.2C248.985-185.481,249.242-184.629,249.114-183.843
			L249.114-183.843z"/>
	</g>
</g>
<g>
	<g>
		<path fill="none" stroke="#0071BC" stroke-width="15" stroke-linecap="round" stroke-linejoin="round"  d="M233.243-109.341c0,17.906,0,35.812,0,53.719c0,0.312,0.02,1.012,0.015,1.172c0.173-6.265,2.905-12.901,5.387-18.554
			c0.993-2.263,5.59-12.413,8.623-6.941c2.729,4.923,2.314,12.535,3.655,17.962c0.526,2.132,1.247,5.513,3.422,6.596
			c2.585,1.286,4.963-5.391,5.514-6.693c0.293-0.693-0.288-1.75,0-2.43c-0.816,1.931-3.475,9.122-6.544,5.905
			c-2.45-2.568-2.89-7.711-3.487-11.011c-0.593-3.271-1.456-19.381-7.333-12.57c-5.088,5.896-7.8,15.719-9.046,23.247
			c-0.605,3.657-0.182-1.187-0.182-2.651c0-5.305,0-10.61,0-15.916c0-10.611,0-21.223,0-31.834
			C233.267-110.716,233.243-110.716,233.243-109.341L233.243-109.341z"/>
	</g>
</g>
<g>
	<g>
		<path fill="none" stroke="#0071BC" stroke-width="15" stroke-linecap="round" stroke-linejoin="round"  d="M261.56-67.683c6.309,0.43,8.266-4.066,8.212-9.51c-0.027-2.713-0.596-6.02-3.358-7.196
			c-3.468-1.479-5.488,4.198-6.003,6.448c-2.448,10.707,3.556,25.832,16.702,20.707c0.29-0.113-0.258-2.329,0-2.43
			c-10.403,4.056-18.526-5.642-16.702-15.847c0.683-3.817,4.717-9.558,8.161-4.579c3.745,5.413-1.809,10.331-7.012,9.977
			C261.596-70.11,261.486-67.688,261.56-67.683L261.56-67.683z"/>
	</g>
</g>
<g>
	<g>
		<path fill="none" stroke="#0071BC" stroke-width="15" stroke-linecap="round" stroke-linejoin="round"  d="M277.599-57.477c0.748,2.324,2.76,4.09,5.253,3.028c1.791-0.762,2.549-3.806,3.01-5.458
			c1.528-5.479,1.338-10.951,1.526-16.563c0.277-8.256,0.479-16.464,0.43-24.72c-0.019-3.228-0.095-6.539-1.757-9.399
			c-2.32-3.995-3.342,5.145-3.37,6.772c-0.124,7.318,0.841,14.511,1.94,21.736c0.885,5.815,1.555,11.655,2.337,17.485
			c0.433,3.225,0.91,13.079,6.518,10.196c4.467-2.295,4.71-11.001,5.305-15.16c0.988-6.908,1.199-13.928,1.533-20.889
			c0.313-6.514,0.829-14.186-1.47-20.327c-1.193-3.189-2.209,1.69-2.578,2.994c-0.651,2.302-0.865,4.711-0.939,7.091
			c-0.079,2.512,0.016,5.037,0.075,7.548c0.205,8.631,0.3,18.146,2.779,26.472c1.492,5.01,5.352,14.42,12.094,12.263
			c0.252-0.08-0.219-2.36,0-2.43c-6.831,2.186-10.473-7.292-12.094-12.264c-1.137-3.486-1.26-7.054-1.689-10.672
			c-0.922-7.75-1.935-16.474-0.545-24.181c0.365-2.023,1.015-3.997,2.056-5.771c0.047-0.079,1.639,4.099,1.715,4.455
			c1.456,6.795,0.542,14.146,0.161,21.027c-0.354,6.417-0.985,12.797-2.282,19.097c-0.688,3.341-1.927,8.76-6.228,8.895
			c-3.9,0.121-4.078-8.492-4.41-10.775c-0.785-5.403-1.331-10.838-2.147-16.238c-0.663-4.393-1.332-8.78-1.784-13.201
			c-0.068-0.662-0.52-14.6,2.387-12.438c2.837,2.11,2.355,8.182,2.371,10.972c0.041,7.034-0.242,14.031-0.478,21.058
			c-0.181,5.361-0.268,10.28-1.709,15.447c-1.21,4.339-6.127,7.369-8.009,1.521C277.833-59.178,277.36-58.216,277.599-57.477
			L277.599-57.477z"/>
	</g>
</g>
<g>
	<g>
		<path fill="none" stroke="#0071BC" stroke-width="15" stroke-linecap="round" stroke-linejoin="round"  d="M322.486-81.647c0.098,8.45,1.211,16.955,4.831,24.673c2.381,5.079,6.187,1.666,8.105-1.569
			c2.65-4.469,3.684-9.825,4.331-14.906c0.354-2.772,0.461-5.596,0.48-8.389c-0.056,7.854-0.701,15.671-1.347,23.494
			c-0.967,11.703-1.016,23.537-3.198,35.103c-0.766,4.06-1.681,8.653-4.056,12.109c-2.615,3.806-6.823,1.763-8.346-1.585
			c-2.979-6.551,4.272-16.967,7.363-22.417c10.1-17.812,21.881-35.396,29.024-54.662c0.267-0.718-0.262-1.724,0-2.43
			c-6.666,17.979-18.099,33.251-26.6,50.284c-4.425,8.866-10.65,17.021-10.474,27.366c0.1,5.845,5.232,11.401,9.732,4.854
			c2.049-2.981,2.625-7.659,3.354-11.089c1.022-4.81,1.509-9.767,1.839-14.666c1.105-16.408,2.907-32.886,2.715-49.347
			c-0.008-0.685-0.018-0.046-0.02,0.246c-0.055,7.769-0.506,23.242-8.521,27.732c-6.906,3.868-9.167-23.826-9.198-26.521
			C322.493-84.285,322.483-81.939,322.486-81.647L322.486-81.647z"/>
	</g>
</g>
<g>
	<g>
		<path fill="none" stroke="#0071BC" stroke-width="15" stroke-linecap="round" stroke-linejoin="round"  d="M306.942-66.866c6.31,0.431,8.266-4.065,8.211-9.51c-0.027-2.712-0.596-6.019-3.358-7.196
			c-3.468-1.479-5.488,4.198-6.003,6.449c-2.446,10.707,3.557,25.831,16.703,20.707c0.29-0.112-0.258-2.329,0-2.43
			c-10.404,4.055-18.526-5.643-16.703-15.848c0.683-3.817,4.717-9.557,8.161-4.579c3.745,5.413-1.807,10.331-7.011,9.977
			C306.979-69.294,306.869-66.871,306.942-66.866L306.942-66.866z"/>
	</g>
</g>
<g>
	<g>
		<path fill="none" stroke="#0071BC" stroke-width="15" stroke-linecap="round" stroke-linejoin="round"  d="M-9.5,15.711c0.038,0,0.038-5,0-5S-9.538,15.711-9.5,15.711L-9.5,15.711z"/>
	</g>
</g>
<g>
	<g>
		<path fill="none" stroke="#0071BC" stroke-width="15" stroke-linecap="round" stroke-linejoin="round"  d="M257.108,32.879c0.901-8.812,0.723-18.568-6.162-25.059c-6.517-6.144-18.935-7.927-26.907-4.131
			c-3.222,1.533-5.486,4.438-7.755,7.075c-2.737,3.184-5.447,6.236-7.382,9.988c-4.32,8.38-5.217,18.488-6.583,27.676
			c-4.749,31.941-1.157,64.366-1.212,96.475c-0.044,25.511-2.374,51.463-10.485,75.776c-2.554,7.654-5.877,15.035-9.911,22.02
			c-0.987,1.71-2.063,3.366-3.154,5.011c-1.159,1.75-6.406,7.877-1.008,1.898c-3.312,3.668-7.063,6.902-11.056,9.802
			c-13.179,9.569-30.874,12.719-45.843,5.438c-12.491-6.075-21.579-18.674-28.38-30.342c-6.954-11.929-12.622-25.739-13.662-39.628
			c0.05,0.674-2.855,3.262-3.288,3.768c-0.477,0.558-3.271,3.043-3.211,3.832c1.548,20.69,12.646,41.86,26.2,57.197
			c6.907,7.816,15.191,13.754,25.472,15.995c12.296,2.681,24.705-1.076,34.998-7.821c8.579-5.62,15.377-13.741,21.772-21.648
			c7.612-9.414,13.006-20.314,17.069-31.669c8.629-24.114,10.758-50.363,10.979-75.795c0.338-38.693-4.891-78.197,4.505-116.276
			c0.707-2.863,1.659-5.651,2.844-8.351c0.559-1.275,1.252-2.483,1.977-3.67c1.526-2.226,0.645-1.206-2.645,3.06
			c0.728-0.666,1.56-1.199,2.389-1.728c5.752-3.665,13.396-2.585,19.57-0.793c13.566,3.938,15.629,17.204,14.371,29.499
			C250.884,37.797,256.825,35.646,257.108,32.879L257.108,32.879z"/>
	</g>
</g>
<g>
	<g>
		<path fill="none" stroke="#0071BC" stroke-width="15" stroke-linecap="round" stroke-linejoin="round"  d="M199.356,200.177c2.062,0,4.065-7.996,6.005-7.996C203.301,192.181,201.297,200.177,199.356,200.177L199.356,200.177z"/>
	</g>
</g>
<g>
	<g>
		<path fill="none" stroke="#0071BC" stroke-width="15" stroke-linecap="round" stroke-linejoin="round"  d="M200.555,201.159c8.584-32.269,16.145-64.804,25-97c-0.297-3.32-0.594-6.641-0.891-9.961
			c-1.209,11.123-3.476,22.071-4.938,33.155c-2.786,21.117-3.042,42.582-3.312,63.845c-0.037,2.917,1.699,7.234,0.891,9.961
			c3.945-13.302,7.412-26.761,11.685-39.963c1.001-3.091,4.006-15.122,8.828-8.627c0.868,1.169,1.272,2.7,1.649,4.079
			c0.309,1.136,0.488,2.32,0.663,3.48c-0.942-6.246-0.247-2.403-0.188-0.823c0.199,5.429,0.071,10.866,0.07,16.297
			c-0.001,7.017,0.079,14.546,1.693,21.396c3.234,13.72,16.953-6.047,19.303-10.203c6.926-12.247,9.242-25.852,6.064-39.646
			c-0.58-2.516-1.914-4.736-3.826-6.452c-1.057-0.949-3.719,5.867-3.845,6.34c-1.886,7.076-0.589,15.055,0.118,22.198
			c0.748,7.545,2.229,14.979,5.285,21.954c1.969,4.494,5.766,11.148,11.615,10.118c4.537-0.799,7.047-6.636,8.557-10.341
			c2.785-6.826,4.137-14.269,5.24-21.522c2.43-15.964,3.055-32.456,1.764-48.556c-0.537-6.696-0.93-13.514-2.385-20.09
			c-0.412-1.855-0.955-3.728-1.891-5.392c-1.178-2.098-2.07-0.042-2.893,1.41c-2.752,4.848-3.754,10.845-4.674,16.261
			c-1.332,7.831-1.9,15.797-2.121,23.73c-0.27,9.658-0.396,75.696,22.291,62.831c4.742-2.689,7.385-8.415,9.268-13.261
			c2.73-7.027,4.096-14.59,5.096-22.032c2.137-15.938,1.633-31.914,0.115-47.872c-0.537-5.663-1.168-11.404-2.855-16.858
			c-0.502-1.623-1.152-3.255-2.189-4.613c-1.291-1.694-2.32,0.901-2.898,2.115c-2.84,5.974-3.52,13.265-4.297,19.738
			c-1.102,9.168-1.488,18.436-1.375,27.665c0.1,8.133,0.76,16.318,1.738,24.391c0.756,6.224,1.92,11.931,5.262,17.276
			c4.619,7.394,6.508,13.905,16.406,14.964c3.225,0.345,5.117,0.425,7.018-2.086c1.916-2.531,3.211-5.593,4.438-8.496
			c3.223-7.634,5.451-15.906,6.102-24.175c0.514-6.508,0.189-14.586-2.02-20.766c-0.734-2.058-3.014-5.812-5.34-4.227
			c-2.68,1.828-3.693,5.378-4.225,8.383c-1.311,7.423,0.117,16.017,1.301,23.37c1.293,8.033,3.932,16.334,8.348,23.217
			c1.254,1.957,3.02,4.303,5.438,4.786c1.764,0.353,3.221-2.911,3.812-4.041c3.885-7.424,5.779-16.157,7.691-24.25
			c1.656-7.011,3.555-14.463,3.664-21.709c-0.297-3.32-0.594-6.641-0.891-9.961c-0.086,9.493-1.299,18.901-0.979,28.42
			c0.293,8.764-0.137,22.164,5.926,29.287c7.85,9.224,14.268-6.961,15.678-12.463c2.588-10.1,3.238-20.887,3.266-31.283
			c0.008-3.314-0.979-6.665-0.891-9.961c-0.451,16.845,3.018,33.888,5.283,50.506c2.379,17.459,4.098,39.162-7.379,54.033
			c-2.395,3.104-5.514,5.539-8.904,7.461c-0.156-0.891-0.312-1.782-0.469-2.674c0.303,2.952,0.426,3.269,0.373,0.951
			c0.018-1.517,0.141-3.031,0.26-4.543c0.289-3.638,0.943-7.242,1.674-10.812c2.682-13.07,7.703-25.583,12.275-38.072
			c10.512-28.711,21.883-56.892,34.65-84.692c5.881-12.808,11.965-25.521,18.127-38.196c1.264-2.603-2.121-7.428-0.891-9.961
			c-13.947,28.692-27.404,57.628-39.402,87.196c-5.363,13.215-10.033,26.642-14.963,40.016c-4.631,12.56-9.273,25.176-11.568,38.411
			c-1.754,10.113-1.074,20.642,0.523,30.742c0.428,2.71,2.082,0.582,3.682-0.551c1.576-1.116,2.973-2.462,4.291-3.866
			c2.865-3.055,4.875-6.82,6.414-10.685c6.65-16.706,3.602-36.822,1.732-54.171c-0.836-7.738-1.988-15.438-3.098-23.142
			c-0.529-3.666-1.039-7.334-1.496-11.01c-0.105-0.866-0.207-1.734-0.303-2.602c0.535,4.813,0.162,1.568,0.113,0.495
			c-0.078-1.625-0.08-3.249-0.035-4.874c-0.297-3.32-0.594-6.641-0.891-9.961c-0.021,8.749-0.674,17.543-2.182,26.164
			c-1.104,6.317-3.174,18.63-11.057,19.98c-3.248,0.557-5.854-2.176-7.312-4.698c-0.959-1.654-1.502-3.546-1.982-5.382
			c-0.381-1.465-0.615-2.967-0.83-4.464c1.088,7.559,0.221,1.105,0.195-0.602c-0.123-8.374,0.982-16.682,1.059-25.038
			c0.029-3.321-0.941-6.656-0.891-9.961c-0.104,6.904-1.898,13.949-3.416,20.643c-1.84,8.117-3.928,16.393-7.316,24.02
			c-2.176,4.895-4.645,7.017-8.598,2.309c-4.932-5.875-7.34-14.338-8.986-21.661c-0.299-1.323-0.529-2.661-0.746-3.999
			c-0.736-4.578,0.254,8.024,0.238,1.755c-0.006-1.798,0.188-3.585,0.5-5.353c0.553-3.129,1.955-6.102,4.627-7.923
			c2.025-1.38,4.539,3.902,5.033,5.287c0.258,0.722,0.408,1.479,0.564,2.227c-1.473-7.077-0.414-5.734-0.514-3.014
			c-0.084,2.296-0.412,4.58-0.789,6.844c-1.305,7.863-3.887,15.726-7.467,22.848c-0.984,1.961-2.123,4.103-3.812,5.556
			c-2.564,2.206-9.498-0.021-12.176-1.28c-3.287-1.546-5.318-4.741-6.953-7.831c-1.549-2.932-3.383-5.769-4.832-8.734
			c-1.271-2.603-1.885-5.544-2.424-8.367c-0.303-1.574-0.961-9.742-0.514-2.642c-0.18-2.833-0.252-5.674-0.287-8.512
			c-0.111-9.203,0.414-18.435,1.512-27.572c0.766-6.367,1.609-13.319,4.395-19.179c0.615-1.297,1.447-3.101,2.68-1.655
			c1.207,1.415,1.811,3.392,2.35,5.133c0.822,2.657,1.311,5.424,1.729,8.168c0.117,0.764,0.215,1.529,0.314,2.294
			c0.379,2.941-0.223-3.479-0.031-0.275c0.129,2.171,0.199,4.346,0.248,6.52c0.359,15.987-0.789,32.876-6.002,48.099
			c-2.566,7.493-10.76,21.968-20.469,14.304c-4.184-3.303-6.006-9.376-7.336-14.285c-0.979-3.614-1.607-7.321-2.119-11.027
			c-0.145-1.051-0.422-4.463-0.053,0.444c-0.088-1.163-0.148-2.328-0.207-3.493c-0.137-2.648-0.191-5.301-0.211-7.952
			c-0.109-14.151,0.469-29.828,5.533-43.222c0.674-1.78,1.525-3.535,2.758-4.997c1.055-1.253,2.158,2.099,2.477,2.979
			c0.867,2.393,1.295,4.964,1.672,7.47c0.109,0.735,0.199,1.474,0.291,2.212c-0.826-6.689-0.254-2.896-0.162-1.265
			c0.123,2.183,0.186,4.367,0.23,6.552c0.346,16.881-0.846,34.356-5.092,50.744c-1.959,7.57-8.705,25.632-18.564,14.601
			c-4.826-5.398-6.865-13.51-8.229-20.416c-0.244-1.237-0.43-2.485-0.605-3.733c-0.605-4.275,0.455,7.119,0.295,2.915
			c-0.076-1.984,0.014-3.97,0.198-5.944c0.273-2.922,0.95-5.944,2.622-8.399c1.926-2.831,3.332-0.559,4.566,1.692
			c0.627,1.145,0.986,2.423,1.277,3.687c1.297,5.632-0.432-11.005-0.469-4.987c-0.006,1.029-0.107,2.058-0.217,3.081
			c-0.752,7.083-3.572,13.985-6.895,20.221c-2.496,4.682-9.385,17.334-16.377,15.583c-1.219-0.306-2.011-1.431-2.566-2.468
			c-0.466-0.868-0.703-1.856-0.928-2.807c-0.556-3.317-0.441-1.659,0.345,4.974c-0.062-1.224-0.077-2.452-0.093-3.677
			c-0.094-7.036,0.137-14.069-0.184-21.103c-0.276-6.031-0.73-12.194-1.771-18.146c-0.35-1.989-2.777-10.388-6.422-7.316
			c-1.373,1.158-2.045,3.521-2.678,5.114c-1.459,3.675-2.574,7.496-3.715,11.279c-3.374,11.188-6.406,22.479-9.73,33.684
			c0.297,3.32,0.594,6.641,0.891,9.961c0.27-21.277,0.585-42.711,3.311-63.845c1.432-11.089,3.73-22.032,4.939-33.155
			c0.334-3.079-1.694-7.038-0.891-9.961c-8.854,32.197-16.416,64.732-25,97C198.852,194.249,201.352,198.158,200.555,201.159
			L200.555,201.159z"/>
	</g>
</g>
</svg>
