<?xml version="1.0" encoding="utf-8"?>
<!-- Generator: Adobe Illustrator 16.0.0, SVG Export Plug-In . SVG Version: 6.00 Build 0)  -->
<!DOCTYPE svg PUBLIC "-//W3C//DTD SVG 1.1//EN" "http://www.w3.org/Graphics/SVG/1.1/DTD/svg11.dtd">
<svg version="1.1" id="Layer_1" xmlns="http://www.w3.org/2000/svg" xmlns:xlink="http://www.w3.org/1999/xlink" x="0px" y="0px"
	 width="792px" height="612px" viewBox="0 0 792 612" enable-background="new 0 0 792 612" xml:space="preserve">
<g>
	<g>
		<path fill="none" stroke="#fff" stroke-width="3" stroke-linecap="round" stroke-linejoin="round"  d="M231.167,267c-0.005,14.94-0.098,29.882,0.722,44.806c0.808,14.707,3.688,29.179,4.611,43.861c0.206,3.279,4.63,3.153,5,0
			c0.631-5.371,0.232-11.39,3.062-16.203c2.424-4.124,4.178,1.471,4.638,3.417c0.637,2.693,0.836,5.484,1.723,8.117
			c1.024,3.038,5.854,1.734,4.821-1.33c-1.997-5.926-1.392-18.015-10.742-16.412c-8.562,1.468-7.782,16.279-8.502,22.411
			c1.667,0,3.333,0,5,0c-0.923-14.682-3.718-29.163-4.611-43.861c-0.906-14.912-0.727-29.874-0.722-44.806
			C236.168,263.775,231.168,263.776,231.167,267L231.167,267z"/>
	</g>
</g>
<g>
	<g>
		<path fill="none" stroke="#fff" stroke-width="3" stroke-linecap="round" stroke-linejoin="round" d="M258.167,338c0.024,5.119,0.346,10.226,0.667,15.333c0.201,3.202,5.202,3.222,5,0c-0.32-5.107-0.643-10.214-0.667-15.333
			C263.152,334.776,258.152,334.775,258.167,338L258.167,338z"/>
	</g>
</g>
<g>
	<g>
		<path fill="none" stroke="#fff" stroke-width="3" stroke-linecap="round" stroke-linejoin="round" d="M261.667,328.167c3.224,0,3.224-5,0-5S258.443,328.167,261.667,328.167L261.667,328.167z"/>
	</g>
</g>
<g>
	<g>
		<path fill="none" stroke="#fff" stroke-width="3" stroke-linecap="round" stroke-linejoin="round" d="M288.833,335c0.591,5.658,0.356,11.323,0.333,17c-0.013,3.225,4.987,3.224,5,0c0.023-5.677,0.258-11.342-0.333-17
			C293.502,331.826,288.499,331.794,288.833,335L288.833,335z"/>
	</g>
</g>
<g>
	<g>
		<path fill="none" stroke="#fff" stroke-width="3" stroke-linecap="round" stroke-linejoin="round" d="M289.667,324.833c3.224,0,3.224-5,0-5S286.443,324.833,289.667,324.833L289.667,324.833z"/>
	</g>
</g>
<g>
	<g>
		<path fill="none" stroke="#fff" stroke-width="3" stroke-linecap="round" stroke-linejoin="round" d="M296.167,334.667c-0.207,6.553,1.203,13.089,3.089,19.331c0.804,2.662,4.969,2.216,4.911-0.665
			c-0.065-3.18-1.776-12.239,2.165-13.589c1.812-0.621,3.84,11.853,4.258,13.254c0.798,2.678,4.945,2.204,4.911-0.665
			c-0.018-1.526,0.958-9.436,0.623-9.738c2.703,2.438,3.005,8.413,4.133,11.737c1.031,3.035,5.861,1.732,4.821-1.33
			c-1.418-4.178-2.536-15.502-8.744-15.502c-6.681,0-5.885,10.532-5.833,14.833c1.637-0.222,3.274-0.443,4.911-0.665
			c-1.454-4.877-1.783-17.924-9.678-16.846c-8.278,1.131-6.685,12.688-6.566,18.511c1.637-0.222,3.274-0.443,4.911-0.665
			c-1.766-5.843-3.104-11.866-2.911-18.001C301.269,331.441,296.269,331.451,296.167,334.667L296.167,334.667z"/>
	</g>
</g>
<g>
	<g>
		<path fill="none" stroke="#fff" stroke-width="3" stroke-linecap="round" stroke-linejoin="round" d="M376.665,330.589c-3.903-1.188-7.211-0.753-9.984,2.407c-2.124,2.421-3.403,6.907-1.596,9.862
			c1.974,3.228,5.411,5.043,8.261,7.406c2.004,1.663,4.663,4.049,4.995,6.79c0.483,3.992-6.33-1.639-6.848-2.65
			c-1.47-2.871-5.784-0.34-4.317,2.523c3.385,6.609,15.018,9.947,16.165,0.127c0.462-3.961-3.851-8.009-6.459-10.325
			c-1.495-1.328-3.152-2.503-4.771-3.674c-1.104-0.8-2.289-1.681-2.792-3.016c-1.452-3.855,3.259-5.469,6.018-4.629
			C378.428,336.353,379.74,331.525,376.665,330.589L376.665,330.589z"/>
	</g>
</g>
<g>
	<g>
		<path fill="none" stroke="#fff" stroke-width="3" stroke-linecap="round" stroke-linejoin="round" d="M384.5,322.333c1.097,13.649,1.837,27.849,7.089,40.665c0.809,1.973,4.405,2.756,4.821,0
			c0.746-4.94,0.501-9.934,1.776-14.809c0.276-1.056,0.676-2.124,1.399-2.958c1.202-1.385,2.566,2.861,2.759,3.379
			c1.147,3.08,1.722,6.347,3.163,9.317c1.408,2.9,5.72,0.364,4.318-2.523c-2.276-4.688-4.037-19.731-12.798-14.505
			c-6.122,3.651-4.551,14.886-5.439,20.769c1.607,0,3.214,0,4.821,0c-5.097-12.437-5.846-26.089-6.911-39.335
			C389.244,319.142,384.242,319.117,384.5,322.333L384.5,322.333z"/>
	</g>
</g>
<g>
	<g>
		<path fill="none" stroke="#fff" stroke-width="3" stroke-linecap="round" stroke-linejoin="round" d="M416.101,349.768c2.578-3.182,8.899-2.927,7.662-8.632c-0.98-4.52-6.328-5.164-9.744-2.954
			c-4.062,2.63-5.105,8.991-3.278,13.171c2.108,4.825,6.933,6.739,11.925,6.059c3.183-0.435,1.822-5.252-1.33-4.822
			c-2.371,0.324-4.501-0.673-5.76-2.685c-1.5-2.396-0.562-5.192,0.917-7.31c0.415-0.595,1.333-0.694,1.982-0.696
			c0.683-0.002,0.466,0.342,0.094,0.586c-1.982,1.302-4.451,1.833-6.003,3.748C410.555,348.713,414.07,352.273,416.101,349.768
			L416.101,349.768z"/>
	</g>
</g>
<g>
	<g>
		<path fill="none" stroke="#fff" stroke-width="3" stroke-linecap="round" stroke-linejoin="round" d="M422.589,323.332c2.338,9.108,4.427,18.272,8,27c1.205,2.941,6.044,1.655,4.822-1.33c-3.574-8.727-5.663-17.891-8-27
			C426.609,318.881,421.787,320.206,422.589,323.332L422.589,323.332z"/>
	</g>
</g>
<g>
	<g>
		<path fill="none" stroke="#fff" stroke-width="3" stroke-linecap="round" stroke-linejoin="round" d="M433.5,320.333c0.147,10.944,2.589,21.861,8.342,31.262c1.679,2.745,6.005,0.234,4.316-2.523
			c-5.306-8.672-7.521-18.643-7.658-28.738C438.456,317.111,433.456,317.107,433.5,320.333L433.5,320.333z"/>
	</g>
</g>
<g>
	<g>
		<path fill="none" stroke="#fff" stroke-width="3" stroke-linecap="round" stroke-linejoin="round" d="M448.333,338.5c4.181,0.429,10.82-0.3,9.867-6.062c-0.684-4.134-6.171-5.222-9.228-3.297
			c-4.769,3.003-6.122,10.576-2.64,14.916c3.585,4.468,10.194,6.033,15.667,6.109c3.226,0.045,3.222-4.955,0-5
			c-5.621-0.078-15.6-2.761-11.619-10.178c0.614-1.144,2.069-2.549,2.812-1.583c0.46,0.599-0.138,0.052,0.208-0.175
			c-1.305,0.856-3.645,0.415-5.068,0.269C445.126,333.171,445.158,338.175,448.333,338.5L448.333,338.5z"/>
	</g>
</g>
<g>
	<g>
		<path fill="none" stroke="#fff" stroke-width="3" stroke-linecap="round" stroke-linejoin="round" d="M462.5,329c0.828,6.975,0.301,15.728,9.166,16.833c8.727,1.089,8.959-10.801,6.745-16.165
			c-0.975-2.359-5.245-2.392-4.911,0.665c1.224,11.189,8.608,25.325,2.836,36.141c-3.77,7.063-15.48,7.555-15.836-1.807
			c-0.122-3.214-5.122-3.226-5,0c0.429,11.314,11.515,15.14,20.456,9.306c14.328-9.349,3.944-30.84,2.544-43.64
			c-1.637,0.222-3.273,0.443-4.911,0.665c1.008,2.44,2.101,13.709-3.742,9.162c-2.72-2.116-1.984-8.11-2.347-11.16
			C467.125,325.839,462.12,325.802,462.5,329L462.5,329z"/>
	</g>
</g>
<g>
	<g>
		<path fill="none" stroke="#fff" stroke-width="3" stroke-linecap="round" stroke-linejoin="round" d="M465,321.5c3.225,0,3.225-5,0-5S461.775,321.5,465,321.5L465,321.5z"/>
	</g>
</g>
<g>
	<g>
		<path fill="none" stroke="#fff" stroke-width="3" stroke-linecap="round" stroke-linejoin="round" d="M474.333,321.5c3.225,0,3.225-5,0-5S471.108,321.5,474.333,321.5L474.333,321.5z"/>
	</g>
</g>
<g>
	<g>
		<path fill="none" stroke="#fff" stroke-width="3" stroke-linecap="round" stroke-linejoin="round" d="M510,334.833c2.751,0.084,5.375,0.634,7.926-0.662c2.289-1.163,2.71-4.62,1.708-6.71
			c-2.342-4.886-8.209-7.628-12.471-3.455c-6.781,6.641-0.268,21.383,8.837,21.493c3.226,0.039,3.222-4.961,0-5
			c-4.615-0.056-6.385-5.929-6.334-9.709c0.014-1.039,0.644-4.263,2.306-4.021c0.706,0.104,4.127,3.16,2.581,3.295
			c-1.49,0.13-3.06-0.186-4.553-0.231C506.773,329.734,506.783,334.734,510,334.833L510,334.833z"/>
	</g>
</g>
<g>
	<g>
		<path fill="none" stroke="#fff" stroke-width="3" stroke-linecap="round" stroke-linejoin="round" d="M533.667,321.499c-5.064,0.417-8.343,1.679-9.864,6.919c-1.302,4.482-1.034,10.067,2.997,12.889
			c3.551,2.484,7.241-0.022,8.921-3.322c1.67-3.28,2.396-7.325,2.446-10.985c-1.637,0.222-3.273,0.443-4.911,0.665
			c1,3.333,2,6.666,3,10c0.925,3.08,5.751,1.767,4.822-1.33c-1.001-3.333-2.001-6.666-3-10c-0.812-2.706-4.873-2.184-4.911,0.665
			c-0.025,1.905-0.351,3.773-0.807,5.62c-0.21,0.853-1.051,4.566-2.271,4.683c-2.6,0.248-1.86-5.204-1.677-6.51
			c0.157-1.112,0.479-2.841,1.427-3.557c0.986-0.746,2.669-0.641,3.827-0.736C536.856,326.236,536.883,321.234,533.667,321.499
			L533.667,321.499z"/>
	</g>
</g>
<g>
	<g>
		<path fill="none" stroke="#fff" stroke-width="3" stroke-linecap="round" stroke-linejoin="round" d="M542.5,323.333c0.085,4.193,1.006,8.296,2.089,12.331c0.739,2.751,4.882,2.149,4.911-0.665
			c0.032-3.193,0.379-7.541,2.783-9.903c2.945-2.893,3.546,7.443,3.551,8.57c0.014,3.224,5.014,3.225,5,0
			c-0.022-5.217-1.182-15.621-8.98-13.757c-6.11,1.46-7.3,9.868-7.354,15.09c1.637-0.222,3.273-0.443,4.911-0.665
			c-0.971-3.611-1.835-7.246-1.911-11.001C547.436,320.113,542.435,320.106,542.5,323.333L542.5,323.333z"/>
	</g>
</g>
<g>
	<g>
		<path fill="none" stroke="#fff" stroke-width="3" stroke-linecap="round" stroke-linejoin="round" d="M573.667,318.833c-4.563-0.08-8.491,0.139-10.385,4.949c-1.489,3.781-1.071,9.375,2.343,11.916
			c7.979,5.939,12.643-6.12,12.875-12.365c-1.637,0.222-3.273,0.443-4.911,0.665c1.025,5.507,1.869,11.042,2.053,16.648
			c0.079,2.421,0.225,5.623-1.369,7.634c-1.484,1.872-5.716,4.156-6.527,0.721c-0.742-3.137-5.562-1.806-4.822,1.33
			c2.068,8.75,12.703,5.499,16.235-0.403c2.194-3.665,1.571-9.129,1.274-13.146c-0.352-4.734-1.154-9.45-2.021-14.113
			c-0.536-2.878-4.811-2.044-4.911,0.665c-0.104,2.794-0.962,7.068-3.354,8.829c-2.688,1.978-2.429-5.263-2.292-6.081
			c0.483-2.898,3.603-2.287,5.813-2.248C576.893,323.89,576.888,318.89,573.667,318.833L573.667,318.833z"/>
	</g>
</g>
</svg>
