<?xml version="1.0" encoding="utf-8"?>
<!-- Generator: Adobe Illustrator 16.0.0, SVG Export Plug-In . SVG Version: 6.00 Build 0)  -->
<!DOCTYPE svg PUBLIC "-//W3C//DTD SVG 1.1//EN" "http://www.w3.org/Graphics/SVG/1.1/DTD/svg11.dtd">
<svg version="1.1" id="Layer_1" xmlns="http://www.w3.org/2000/svg" xmlns:xlink="http://www.w3.org/1999/xlink" x="0px" y="0px"
	 width="792px" height="259px" viewBox="0 0 792 259" enable-background="new 0 0 792 259" xml:space="preserve">
<g>
	<g>
		<path fill="none" stroke="#fff" stroke-width="3" stroke-linecap="round" stroke-linejoin="round" d="M10.515,9.181c-0.005,32.527-0.262,65.072,1.534,97.563c1.803,32.625,8.317,64.739,10.187,97.317
			c0.416,7.241,10.125,6.891,10.989,0c0.804-6.413,0.917-12.895,1.804-19.301c0.788-5.694,1.825-14.884,7.003-18.526
			c5.151-3.623,6.797,4.409,7.711,7.988c1.646,6.445,1.927,13.299,4.192,19.577c2.386,6.613,13.008,3.761,10.597-2.922
			c-4.314-11.96-3.55-42.224-24.443-35.816c-9.021,2.767-12.8,12.821-14.664,21.143c-2.052,9.168-2.027,18.579-3.19,27.857
			c3.663,0,7.326,0,10.989,0c-1.832-31.93-8.139-63.422-10.075-95.378c-2.006-33.122-1.652-66.336-1.646-99.501
			C21.505,2.094,10.516,2.094,10.515,9.181L10.515,9.181z"/>
	</g>
</g>
<g>
	<g>
		<path fill="none" stroke="#fff" stroke-width="3" stroke-linecap="round" stroke-linejoin="round" d="M69.858,165.231c0.041,11.252,0.762,22.475,1.465,33.7c0.441,7.037,11.433,7.08,10.989,0
			c-0.704-11.226-1.424-22.448-1.465-33.7C80.822,158.146,69.832,158.144,69.858,165.231L69.858,165.231z"/>
	</g>
</g>
<g>
	<g>
		<path fill="none" stroke="#fff" stroke-width="3" stroke-linecap="round" stroke-linejoin="round" d="M77.551,143.619c7.087,0,7.087-10.99,0-10.99S70.464,143.619,77.551,143.619L77.551,143.619z"/>
	</g>
</g>
<g>
	<g>
		<path fill="none" stroke="#fff" stroke-width="3" stroke-linecap="round" stroke-linejoin="round" d="M137.26,158.638c1.349,12.427,0.769,24.894,0.733,37.364c-0.021,7.088,10.969,7.086,10.989,0
			c0.036-12.471,0.616-24.938-0.733-37.364C147.493,151.67,136.495,151.597,137.26,158.638L137.26,158.638z"/>
	</g>
</g>
<g>
	<g>
		<path fill="none" stroke="#fff" stroke-width="3" stroke-linecap="round" stroke-linejoin="round" d="M139.092,136.292c7.087,0,7.087-10.99,0-10.99S132.005,136.292,139.092,136.292L139.092,136.292z"/>
	</g>
</g>
<g>
	<g>
		<path fill="none" stroke="#fff" stroke-width="3" stroke-linecap="round" stroke-linejoin="round" d="M153.378,157.905c-0.642,14.295,2.613,28.897,6.79,42.487c1.799,5.854,10.861,4.869,10.793-1.461
			c-0.062-5.704-0.648-11.36-0.418-17.074c0.132-3.274,0.526-12.397,5.218-12.814c5.17-0.46,7.948,24.814,9.316,29.151
			c1.84,5.833,10.836,4.885,10.793-1.461c-0.028-4.133-0.156-8.246,0.085-12.377c0.147-2.521,0.532-4.956,1.239-7.381
			c0.602-2.065,1.32-1.352-0.584-2.173c3.133,1.352,4.786,9.342,5.714,12.35c1.427,4.623,2.376,9.415,4,13.974
			c2.36,6.626,12.981,3.771,10.597-2.922c-2.256-6.333-3.494-12.988-5.781-19.326c-2.157-5.978-5.561-14.065-12.866-14.696
			c-15.158-1.31-13.457,23.257-13.394,32.552c3.598-0.487,7.195-0.974,10.793-1.461c-3.38-10.715-3.652-38.664-20.649-37.154
			c-18.903,1.681-15.191,27.962-15.052,40.813c3.598-0.487,7.195-0.974,10.793-1.461c-3.912-12.727-6.998-26.175-6.397-39.565
			C164.686,150.817,153.695,150.848,153.378,157.905L153.378,157.905z"/>
	</g>
</g>
<g>
	<g>
		<path fill="none" stroke="#fff" stroke-width="3" stroke-linecap="round" stroke-linejoin="round" d="M330.304,148.942c-10.634-3.597-20.552,0.086-25.183,10.625c-4.833,10.998,0.057,19.096,8.883,25.72
			c7.006,5.258,16.319,11.093,19.529,19.694c1.441,3.861-1.147,5.79-4.759,4.836c-4.144-1.096-8.093-4.681-9.839-8.531
			c-2.923-6.446-12.392-0.854-9.489,5.547c3.781,8.337,15.152,16.127,24.544,14.064c11.801-2.593,12.751-15.408,7.624-24.249
			c-5.108-8.809-14.029-14.969-22.063-20.851c-3.971-2.907-6.363-5.544-4.909-10.571c1.938-6.705,6.893-7.665,12.741-5.687
			C334.115,161.817,336.979,151.201,330.304,148.942L330.304,148.942z"/>
	</g>
</g>
<g>
	<g>
		<path fill="none" stroke="#fff" stroke-width="3" stroke-linecap="round" stroke-linejoin="round" d="M347.525,130.797c2.412,29.889,3.83,61.379,15.582,89.376c1.822,4.34,9.589,6.056,10.597,0
			c1.971-11.842,0.042-25.044,5.184-36.223c0.974-2.116,1.988-3.226,3.121-3.495c1.001-0.239,2.952,3.714,3.674,5.285
			c3.435,7.472,4.209,15.961,8.017,23.291c3.268,6.291,12.75,0.732,9.489-5.547c-4.413-8.497-4.898-18.559-9.91-26.919
			c-4.503-7.513-13.732-9.264-20.275-3.301c-5.906,5.383-7.16,15.304-8.119,22.741c-0.562,4.361-0.905,8.741-1.188,13.128
			c-0.115,1.788-0.221,3.577-0.345,5.365c-0.043,0.62-0.095,1.24-0.149,1.86c-0.134,1.541,0.006,0.283-0.095,0.892
			c3.532,0,7.064,0,10.597,0c-11.402-27.163-12.85-57.458-15.189-86.454C357.949,123.783,346.955,123.729,347.525,130.797
			L347.525,130.797z"/>
	</g>
</g>
<g>
	<g>
		<path fill="none" stroke="#fff" stroke-width="3" stroke-linecap="round" stroke-linejoin="round" d="M416.981,191.096c2.767-3.512,8.085-4.666,11.771-7.036c4.642-2.984,5.703-7.188,4.985-12.421
			c-1.361-9.916-14.55-10.278-21.137-6.146c-8.764,5.497-11.303,19.062-7.801,28.16c4.285,11.127,15.317,15.849,26.606,14.242
			c6.992-0.995,4.007-11.583-2.922-10.598c-12.688,1.806-18.417-13.231-10.501-22.113c0.956-1.072,2.528-1.361,3.893-1.394
			c1.996-0.049,0.636,1.659,1.627,0.48c-1.606,1.91-5.162,2.933-7.352,4.012c-2.541,1.254-5.166,2.789-6.942,5.042
			C404.876,188.825,412.597,196.659,416.981,191.096L416.981,191.096z"/>
	</g>
</g>
<g>
	<g>
		<path fill="none" stroke="#fff" stroke-width="3" stroke-linecap="round" stroke-linejoin="round" d="M431.241,132.992c5.157,19.991,9.618,40.223,17.583,59.343c2.685,6.442,13.322,3.619,10.598-2.922
			c-7.966-19.12-12.427-39.352-17.583-59.343C440.069,123.213,429.47,126.124,431.241,132.992L431.241,132.992z"/>
	</g>
</g>
<g>
	<g>
		<path fill="none" stroke="#fff" stroke-width="3" stroke-linecap="round" stroke-linejoin="round" d="M455.223,126.401c0.146,23.814,5.579,48.375,18.334,68.71c3.755,5.986,13.267,0.476,9.488-5.547
			c-11.762-18.752-16.698-41.202-16.832-63.163C466.169,119.317,455.18,119.312,455.223,126.401L455.223,126.401z"/>
	</g>
</g>
<g>
	<g>
		<path fill="none" stroke="#fff" stroke-width="3" stroke-linecap="round" stroke-linejoin="round" d="M487.824,166.331c8.921,0.946,24.293-0.732,21.655-13.457c-1.851-8.931-13.664-11.582-20.451-6.969
			c-10.98,7.463-12.981,23.745-4.773,33.661c7.581,9.158,22.336,12.284,33.607,12.406c7.09,0.076,7.082-10.913,0-10.99
			c-7.223-0.078-14.572-1.671-20.904-5.216c-7.345-4.11-8.445-10.345-4.429-17.504c1.132-2.016,3.013-3.722,3.868-3.786
			c0.572-0.043,0.883-0.004,1.382,0.25c0.768,0.389,1.119,0.992,0.931,0.714c0.452,0.668,0.111-0.477,0.122,0.188
			c-0.018-1.082,0.787-1.299,0.144-0.884c-2.854,1.834-7.975,0.934-11.151,0.597C480.78,154.594,480.853,165.591,487.824,166.331
			L487.824,166.331z"/>
	</g>
</g>
<g>
	<g>
		<path fill="none" stroke="#fff" stroke-width="3" stroke-linecap="round" stroke-linejoin="round" d="M518.961,145.45c1.922,14.692,0.454,35.373,20.146,36.997c19.941,1.645,19.725-24.398,14.271-36.841
			c-2.167-4.945-10.76-2.533-10.239,2.773c1.459,14.863,6.107,29.086,8.908,43.703c2.279,11.899,3.742,28.199-4.436,38.339
			c-4.954,6.142-12.723,9.523-20.559,9.116c-8.624-0.449-12.352-7.937-12.487-15.695c-0.124-7.078-11.114-7.091-10.99,0
			c0.204,11.652,5.612,21.761,17.045,25.574c10.089,3.364,21.848-0.325,29.929-6.635c11.808-9.219,14.609-24.638,13.977-38.881
			c-0.842-18.952-8.553-36.738-10.396-55.521c-3.413,0.925-6.826,1.849-10.239,2.773c2.735,6.24,4.618,22.653-6.569,19.994
			c-8.345-1.983-6.556-19.47-7.369-25.697C529.046,138.526,518.045,138.438,518.961,145.45L518.961,145.45z"/>
	</g>
</g>
<g>
	<g>
		<path fill="none" stroke="#fff" stroke-width="3" stroke-linecap="round" stroke-linejoin="round" d="M524.456,128.966c7.087,0,7.087-10.99,0-10.99S517.369,128.966,524.456,128.966L524.456,128.966z"/>
	</g>
</g>
<g>
	<g>
		<path fill="none" stroke="#fff" stroke-width="3" stroke-linecap="round" stroke-linejoin="round" d="M544.969,128.966c7.087,0,7.087-10.99,0-10.99S537.882,128.966,544.969,128.966L544.969,128.966z"/>
	</g>
</g>
<g>
	<g>
		<path fill="none" stroke="#fff" stroke-width="3" stroke-linecap="round" stroke-linejoin="round" d="M623.361,158.271c5.871,0.117,11.936,1.6,17.354-1.409c5.884-3.268,5.786-11.104,3.098-16.304
			c-5.269-10.187-18.975-14.993-27.143-5.556c-13.037,15.065-0.743,46.858,19.879,46.712c7.084-0.051,7.089-11.04,0-10.99
			c-10.692,0.077-15.294-15.287-13.625-23.887c0.384-1.977,1.123-3.737,2.541-5.171c1.978-1.999,3.127-0.968,5.381,0.545
			c0.536,0.359,4.84,5.049,3.955,5.372c-3.223,1.179-8.062-0.234-11.439-0.303C616.271,147.139,616.284,158.128,623.361,158.271
			L623.361,158.271z"/>
	</g>
</g>
<g>
	<g>
		<path fill="none" stroke="#fff" stroke-width="3" stroke-linecap="round" stroke-linejoin="round" d="M675.379,128.964c-4.746,0.391-9.534,0.624-13.777,3.002c-4.529,2.537-6.887,8.042-8.053,12.833
			c-1.186,4.876-1.339,10.25-0.776,15.215c0.65,5.745,2.88,9.415,7.723,12.614c7.864,5.197,15.81-0.24,19.444-7.526
			c3.598-7.216,5.242-16.02,5.331-24.049c-3.598,0.487-7.196,0.974-10.794,1.461c2.197,7.326,4.396,14.652,6.593,21.979
			c2.031,6.77,12.639,3.884,10.598-2.922c-2.198-7.326-4.396-14.652-6.593-21.979c-1.782-5.94-10.725-4.805-10.794,1.461
			c-0.051,4.68-0.92,9.303-2.166,13.802c-0.676,2.443-1.569,4.729-2.866,6.908c-0.417,0.701-0.909,1.217-1.498,1.779
			c-0.337,0.321-0.768,0.146-0.086,0.239c-5.867-0.804-4.422-10.139-3.871-14.135c0.38-2.757,1.139-5.923,3.095-7.984
			c1.752-1.847,6.244-1.523,8.491-1.708C682.39,139.377,682.446,128.383,675.379,128.964L675.379,128.964z"/>
	</g>
</g>
<g>
	<g>
		<path fill="none" stroke="#fff" stroke-width="3" stroke-linecap="round" stroke-linejoin="round" d="M694.793,132.995c0.162,9.208,2.209,18.246,4.593,27.102c1.627,6.041,10.738,4.729,10.794-1.461
			c0.057-6.395,0.587-18.132,6.572-22.067c6.909-4.543,7.337,16.2,7.348,19.138c0.026,7.085,11.016,7.088,10.99,0
			c-0.047-12.77-2.614-33.285-20.194-30.144c-13.103,2.341-15.613,22.637-15.706,33.073c3.598-0.487,7.196-0.974,10.794-1.461
			c-2.136-7.929-4.056-15.933-4.2-24.18C705.658,125.917,694.669,125.904,694.793,132.995L694.793,132.995z"/>
	</g>
</g>
<g>
	<g>
		<path fill="none" stroke="#fff" stroke-width="3" stroke-linecap="round" stroke-linejoin="round" d="M763.296,123.104c-4.856-0.049-9.926-0.702-14.486,1.358c-4.351,1.965-7.27,5.877-8.587,10.373
			c-1.366,4.664-1.502,9.957-0.826,14.736c0.761,5.383,3.484,8.731,7.847,11.835c7.389,5.258,15.383,0.785,19.902-5.654
			c4.391-6.256,6.636-15.184,6.772-22.757c-3.598,0.487-7.196,0.974-10.794,1.461c2.658,14.218,5.181,28.861,4.394,43.374
			c-0.309,5.685-1.737,9.981-6.647,13.169c-4.109,2.668-9.47,4.366-10.591-1.588c-1.311-6.959-11.901-4.003-10.598,2.922
			c4.051,21.504,31.828,10.264,37.154-4.356c3.208-8.806,1.904-19.733,1.016-28.823c-0.906-9.264-2.42-18.473-4.13-27.619
			c-1.173-6.269-10.685-4.551-10.794,1.461c-0.068,3.831-3.08,21.112-8.96,19.583c-5.165-1.343-4.224-8.847-3.616-12.679
			c1.168-7.365,6.958-5.866,12.944-5.806C770.386,134.165,770.379,123.176,763.296,123.104L763.296,123.104z"/>
	</g>
</g>
</svg>
